<?xml version="1.0" encoding="utf-8"?>
<!-- Generator: Adobe Illustrator 23.1.0, SVG Export Plug-In . SVG Version: 6.00 Build 0)  -->
<svg version="1.1" id="Calque_1" xmlns="http://www.w3.org/2000/svg" xmlns:xlink="http://www.w3.org/1999/xlink" x="0px" y="0px"
	 viewBox="0 0 115.9 92" style="enable-background:new 0 0 115.9 92;" xml:space="preserve">
<style type="text/css">
	.st0{fill:#5CC19E;}
</style>
<g>
	<g>
		<path class="st0" d="M26.4,66.9c-4.6,0-7.8-1.9-9.2-5.5c-1.5-3.9-0.5-8.3,2.3-11.3c1.4-1.5,2.6-3.5,3.1-5.5
			c3.5-13.2,10.5-23.7,23.5-28.9c17.4-7,36.1,0.2,45.3,17c1.3,2.5,2.4,5.1,3.3,7.8c1.5,3.9,2,8.1,5.5,11.3c2.8,2.6,2.7,6.9,0.9,10.4
			c-1.7,3.4-4.9,4.9-9.1,4.9c0-0.7-0.1-1.3,0-1.8c3.4-16.3-2.2-29.6-14.2-40.2C65.6,14.2,46.2,16.7,36,29.4
			c-5.8,7.2-8.7,15.7-10.3,24.5C24.9,58,26.1,62.4,26.4,66.9z"/>
	</g>
	<path class="st0" d="M59.3,33.6c-0.7,0-1.5,0-2.2,0.1c0.3-1,0.5-1.9,0.6-2.2c0.5-1.5,0.6-3.7,1.7-4.3c1.1-0.6,3.1,0.4,4.7,0.6
		c1.1,0.1,1.8,0.5,2.4,1.7c0.9,2.1,3.5,2.7,5.4,1.6c1.8-1.1,2.5-3.4,1.4-5.1c-1.1-1.8-3.7-2.7-5.2-1.4c-1.3,1.1-2.6,0.9-4,0.6
		c-1.6-0.4-3.2-0.7-4.8-1.1c-1.3-0.3-2,0.1-2.4,1.4c-0.6,2-1.7,5.8-2.5,8.5C40.1,35.6,29.2,45,29.2,56.3C29.2,68.8,42.7,79,59.3,79
		C76,79,89.5,68.8,89.5,56.3C89.5,43.8,76,33.6,59.3,33.6z M43.8,52.6c-0.1-2.4,2.1-4.7,4.6-4.9c2.5-0.1,5,2.2,5,4.7
		c0.1,2.4-2.2,4.8-4.7,4.9C46.3,57.4,43.8,55.2,43.8,52.6z M70.1,67.8c-3.1,2.3-6.8,3.1-10.7,2.9c-3.9,0.2-7.5-0.9-10.7-3
		c-1-0.7-2.2-1.5-1.2-3c0.9-1.3,2-0.8,3.2-0.1c5.8,3.5,11.6,3.5,17.4,0c1.3-0.8,2.6-1.3,3.3,0.2C71.8,65.6,70.9,67.2,70.1,67.8z
		 M70.5,57.3c-2.5,0.1-4.9-2.2-5-4.8c0-2.4,2.2-4.7,4.7-4.8c2.6-0.1,5,2.2,5,4.8C75.3,55,73,57.3,70.5,57.3z"/>
</g>
</svg>
